#!OML:ASF I:\Actors\actors\Patient Classification 1\Patient 1\Session 1\Subject1.ASF
:FULLY-SPECIFIED
:DEGREES
208
root 0.728031 17.4364 9.32256 10.9246 -2.32417 -9.26039
lowerback -3.88481 1.4188 6.03289
upperback -9.234 2.07434 2.27336
thorax -7.40375 0.701503 -1.02445
lowerneck -9.2573 -3.94208 -3.50736
upperneck 19.6443 -6.80172 9.25798
head 8.03124 -2.6574 2.98658
rclavicle 8.44835e-016 -2.00773e-014
rhumerus -55.7136 -39.4101 -50.1419
rradius 26.442
rwrist 47.0181
rhand 5.04443 -32.8842
rfingers 7.12502
rthumb 30.4124 -60.396
lclavicle 8.44835e-016 -2.00773e-014
lhumerus -52.9023 38.5136 56.5734
lradius 26.0539
lwrist -21.8561
lhand -17.1485 -8.03665
lfingers 7.12502
lthumb 9.09201 21.7474
rfemur -5.44043 25.1882 25.0809
rtibia 2.01897
rfoot -11.51 -24.9661
rtoes 0.630581
lfemur 4.21188 -46.2937 -11.4616
ltibia -4.75908
lfoot -23.8936 54.6442
ltoes 14.0006
209
root 0.729714 17.4369 9.32695 10.988 -2.40946 -9.22318
lowerback -3.9291 1.41228 6.0001
upperback -9.27922 2.064 2.27851
thorax -7.42941 0.697424 -0.999674
lowerneck -9.28381 -3.87824 -3.43026
upperneck 19.7222 -6.72943 9.24099
head 8.05372 -2.61614 2.97587
rclavicle 4.62174e-015 6.75868e-015
rhumerus -55.5218 -39.1588 -50.4338
rradius 26.4755
rwrist 46.7622
rhand 5.08024 -32.8631
rfingers 7.12502
rthumb 30.4465 -60.3686
lclavicle 4.62174e-015 6.75868e-015
lhumerus -52.4197 36.5328 58.7516
lradius 27.6662
lwrist -19.5181
lhand -16.876 -7.64402
lfingers 7.12502
lthumb 9.35501 22.1284
rfemur -5.57926 24.9909 24.9774
rtibia 2.10182
rfoot -11.424 -24.7072
rtoes 0.27794
lfemur 4.21 -46.3665 -11.5205
ltibia -4.77221
lfoot -24.0884 54.7658
ltoes 14.2075
210
root 0.73155 17.4361 9.33404 11.0774 -2.52521 -9.17449
lowerback -4.21149 1.36596 5.8651
upperback -9.18879 1.97611 2.36752
thorax -7.17779 0.674406 -0.823189
lowerneck -9.46858 -3.75514 -3.29935
upperneck 19.7699 -6.557 9.12083
head 8.08287 -2.52905 2.92917
rclavicle -1.00883e-014 -2.0276e-014
rhumerus -54.9741 -38.955 -50.8828
rradius 26.4595
rwrist 46.5778
rhand 5.04964 -32.856
rfingers 7.12502
rthumb 30.4173 -60.3669
lclavicle -1.00883e-014 -2.0276e-014
lhumerus -51.9761 34.0952 61.5561
lradius 30.0875
lwrist -16.5677
lhand -16.4722 -6.99796
lfingers 7.12502
lthumb 9.74455 22.7566
rfemur -5.71815 24.9938 24.8581
rtibia 2.19649
rfoot -11.4812 -24.5797
rtoes 0.355542
lfemur 4.27923 -46.6579 -11.6588
ltibia -4.80088
lfoot -24.4603 55.1018
ltoes 14.41
211
root 0.735094 17.4347 9.34349 11.1374 -2.65262 -9.12326
lowerback -4.4948 1.32247 5.76363
upperback -9.08242 1.89043 2.43294
thorax -6.90693 0.649221 -0.690911
lowerneck -9.66286 -3.61741 -3.10465
upperneck 19.8134 -6.37461 8.99626
head 8.11019 -2.4329 2.87127
rclavicle 2.72087e-014 5.1684e-015
rhumerus -54.4662 -38.7563 -51.3464
rradius 26.4675
rwrist 46.4732
rhand 5.03984 -32.874
rfingers 7.12502
rthumb 30.408 -60.3866
lclavicle 2.72087e-014 5.1684e-015
lhumerus -51.8801 31.1823 64.5419
lradius 33.2996
lwrist -13.4254
lhand -16.2047 -6.2919
lfingers 7.12502
lthumb 10.0027 23.4504
rfemur -5.76189 24.9931 24.7593
rtibia 2.19467
rfoot -11.4498 -24.4871
rtoes 0.238407
lfemur 4.46886 -47.0461 -11.9193
ltibia -4.81503
lfoot -25.0404 55.5055
ltoes 14.8082
212
root 0.739319 17.4339 9.35299 11.1386 -2.80845 -9.11822
lowerback -4.35217 1.37432 5.91004
upperback -9.20927 1.9731 2.32928
thorax -7.11739 0.668938 -0.884914
lowerneck -9.6363 -3.56794 -2.93207
upperneck 19.9575 -6.35734 9.02841
head 8.14842 -2.40577 2.85674
rclavicle 7.85199e-015 1.98785e-016
rhumerus -54.649 -38.4617 -51.5749
rradius 26.662
rwrist 46.2949
rhand 5.11454 -32.9011
rfingers 7.12502
rthumb 30.4792 -60.4005
lclavicle 7.85199e-015 1.98785e-016
lhumerus -52.5698 28.1235 66.914
lradius 36.9777
lwrist -11.0202
lhand -16.1765 -6.12141
lfingers 7.12502
lthumb 10.0299 23.6196
rfemur -5.72421 24.9281 24.7407
rtibia 2.16288
rfoot -11.3699 -24.3168
rtoes -0.0737179
lfemur 4.66134 -47.0753 -12.1135
ltibia -4.83358
lfoot -25.2952 55.6288
ltoes 15.0104
213
root 0.74152 17.435 9.36103 11.1484 -3.02655 -9.13522
lowerback -4.17004 1.44026 6.02992
upperback -9.32434 2.07827 2.23805
thorax -7.33715 0.701415 -1.05311
lowerneck -9.71728 -3.53289 -2.84216
upperneck 20.1554 -6.37117 9.15647
head 8.23259 -2.38582 2.88431
rclavicle 6.26172e-015 1.59028e-015
rhumerus -54.8006 -38.2737 -51.7681
rradius 26.8316
rwrist 46.2548
rhand 5.21811 -32.9342
rfingers 7.12502
rthumb 30.578 -60.4152
lclavicle 6.26172e-015 1.59028e-015
lhumerus -53.7321 25.6555 68.7436
lradius 40.9641
lwrist -9.75176
lhand -16.2931 -7.22406
lfingers 7.12502
lthumb 9.91738 22.5223
rfemur -5.74016 24.9714 24.7332
rtibia 2.21524
rfoot -11.4157 -24.131
rtoes -0.0920088
lfemur 4.78451 -47.0404 -12.2248
ltibia -4.81074
lfoot -25.6056 55.7126
ltoes 15.2409
214
root 0.740975 17.436 9.36713 11.2356 -3.27579 -9.10747
lowerback -4.2175 1.45174 5.92372
upperback -9.31618 2.08837 2.2491
thorax -7.30228 0.715041 -0.98173
lowerneck -9.91475 -3.43433 -2.77831
upperneck 20.2106 -6.27659 9.27923
head 8.28377 -2.31734 2.92303
rclavicle -2.37548e-014 2.88238e-014
rhumerus -54.5033 -38.1591 -52.112
rradius 26.8516
rwrist 46.3212
rhand 5.23122 -32.9244
rfingers 7.12502
rthumb 30.5905 -60.4031
lclavicle -2.37548e-014 2.88238e-014
lhumerus -55.0962 23.8883 70.3006
lradius 45.3168
lwrist -9.52615
lhand -16.445 -9.32953
lfingers 7.12502
lthumb 9.77087 20.4238
rfemur -5.87837 25.0877 24.6311
rtibia 2.28811
rfoot -11.4333 -23.9851
rtoes -0.0373608
lfemur 4.71387 -46.9265 -12.2348
ltibia -4.74453
lfoot -25.9682 55.7404
ltoes 15.62
215
root 0.73976 17.4359 9.37445 11.3141 -3.58675 -9.07118
lowerback -4.29188 1.486 5.77986
upperback -9.27909 2.12495 2.25844
thorax -7.21925 0.745958 -0.89098
lowerneck -10.0109 -3.33921 -2.66378
upperneck 20.0786 -6.17083 9.3658
head 8.25 -2.25137 2.94133
rclavicle 2.13694e-015 1.23246e-014
rhumerus -54.1 -37.857 -52.6603
rradius 26.9372
rwrist 46.0297
rhand 5.19472 -32.9076
rfingers 7.12502
rthumb 30.5557 -60.3928
lclavicle 2.13694e-015 1.23246e-014
lhumerus -56.6424 22.3726 71.7619
lradius 50.1984
lwrist -10.0323
lhand -16.9593 -11.1027
lfingers 7.12502
lthumb 9.27457 18.6733
rfemur -6.00775 25.1774 24.5172
rtibia 2.33316
rfoot -11.3598 -23.7812
rtoes -0.0976607
lfemur 4.7079 -46.7557 -12.306
ltibia -4.69536
lfoot -26.4724 55.7654
ltoes 16.0159
216
root 0.740244 17.4362 9.38271 11.355 -3.95682 -9.05287
lowerback -4.31398 1.59099 5.74358
upperback -9.2391 2.25668 2.18857
thorax -7.15265 0.812998 -0.945498
lowerneck -10.1123 -3.33004 -2.54715
upperneck 19.9631 -6.20831 9.54592
head 8.23611 -2.24371 2.97563
rclavicle -1.35671e-014 4.1546e-014
rhumerus -53.8812 -37.5456 -53.2112
rradius 27.1806
rwrist 45.4555
rhand 5.22697 -32.898
rfingers 7.12502
rthumb 30.5864 -60.3775
lclavicle -1.35671e-014 4.1546e-014
lhumerus -58.2306 20.7825 73.4052
lradius 56.1323
lwrist -11.1249
lhand -17.5231 -8.87231
lfingers 7.12502
lthumb 8.73054 20.9271
rfemur -6.10453 25.1946 24.422
rtibia 2.3761
rfoot -11.2479 -23.4459
rtoes -0.341544
lfemur 4.84897 -46.6468 -12.4843
ltibia -4.67501
lfoot -27.0955 55.872
ltoes 16.3959
217
root 0.742758 17.4359 9.39134 11.4021 -4.29247 -9.01679
lowerback -4.31752 1.696 5.76879
upperback -9.21856 2.38816 2.06112
thorax -7.11395 0.872364 -1.09475
lowerneck -10.2802 -3.34874 -2.46049
upperneck 19.9651 -6.31741 9.84414
head 8.28426 -2.25553 3.04795
rclavicle 1.39646e-014 -1.59028e-014
rhumerus -53.8735 -37.3483 -53.6365
rradius 27.5057
rwrist 44.9329
rhand 5.2932 -32.8489
rfingers 7.12502
rthumb 30.6496 -60.3166
lclavicle 1.39646e-014 -1.59028e-014
lhumerus -59.9135 19.628 74.5601
lradius 62.0728
lwrist -12.1999
lhand -18.6441 -8.77978
lfingers 7.12502
lthumb 7.64869 21.0619
rfemur -6.18796 25.1508 24.3064
rtibia 2.40753
rfoot -11.17 -23.0609
rtoes -0.672621
lfemur 4.9598 -46.5438 -12.6815
ltibia -4.62596
lfoot -27.5363 55.9494
ltoes 16.6764
218
root 0.7453 17.4347 9.4021 11.4385 -4.59973 -8.97847
lowerback -4.3805 1.77563 5.77484
upperback -9.16535 2.47999 1.95198
thorax -7.00842 0.916405 -1.21137
lowerneck -10.4564 -3.33132 -2.36065
upperneck 19.9531 -6.358 10.0537
head 8.32109 -2.2423 3.09526
rclavicle -1.94809e-014 -3.85642e-014
rhumerus -53.7891 -37.1304 -54.0906
rradius 27.7426
rwrist 44.4338
rhand 5.21841 -32.8093
rfingers 7.12502
rthumb 30.5783 -60.2903
lclavicle -1.94809e-014 -3.85642e-014
lhumerus -61.5596 18.8637 75.4768
lradius 68.1724
lwrist -12.7602
lhand -20.3467 -10.0956
lfingers 7.12502
lthumb 6.00512 19.7993
rfemur -6.227 25.1261 24.2114
rtibia 2.43494
rfoot -11.1765 -22.7152
rtoes -0.603685
lfemur 5.14027 -46.613 -12.961
ltibia -4.53686
lfoot -28.2487 56.1214
ltoes 17.0744
219
root 0.74567 17.4352 9.41388 11.4014 -4.95122 -8.99613
lowerback -4.40855 1.88118 5.78531
upperback -9.07868 2.60916 1.86848
thorax -6.88478 0.980914 -1.3043
lowerneck -10.577 -3.30889 -2.23508
upperneck 19.9117 -6.37964 10.2009
head 8.33347 -2.22661 3.1195
rclavicle 1.72943e-014 1.27222e-014
rhumerus -53.6784 -36.9287 -54.4967
rradius 27.8921
rwrist 43.9433
rhand 5.09363 -32.8238
rfingers 7.12502
rthumb 30.4593 -60.3269
lclavicle 1.72943e-014 1.27222e-014
lhumerus -63.1046 18.3118 76.2709
lradius 74.4143
lwrist -12.8779
lhand -22.4394 -13.0813
lfingers 7.12502
lthumb 3.98444 16.8612
rfemur -6.18766 25.113 24.2244
rtibia 2.48221
rfoot -11.1462 -22.3588
rtoes -0.572826
lfemur 5.52869 -46.7362 -13.3061
ltibia -4.52184
lfoot -29.072 56.4041
ltoes 17.5106
220
root 0.744472 17.4367 9.42267 11.3826 -5.26801 -8.96452
lowerback -4.40179 1.97485 5.73043
upperback -9.03722 2.72673 1.76238
thorax -6.83177 1.04072 -1.38591
lowerneck -10.7026 -3.27809 -2.06478
upperneck 20.0073 -6.42079 10.3815
head 8.39451 -2.20864 3.14742
rclavicle 2.76311e-014 3.97569e-015
rhumerus -53.7128 -36.7829 -54.7565
rradius 28.0556
rwrist 43.5405
rhand 5.10791 -32.8114
rfingers 7.12502
rthumb 30.4729 -60.312
lclavicle 2.76311e-014 3.97569e-015
lhumerus -64.4081 17.9529 76.8529
lradius 80.4219
lwrist -12.577
lhand -24.5493 -18.5495
lfingers 7.12502
lthumb 1.94689 11.4214
rfemur -6.20471 25.008 24.1712
rtibia 2.55613
rfoot -11.0564 -21.9641
rtoes -1.07618
lfemur 5.71326 -46.5252 -13.5131
ltibia -4.51323
lfoot -29.403 56.3961
ltoes 17.7299
221
root 0.743026 17.437 9.42669 11.4869 -5.46095 -8.83117
lowerback -4.4729 2.04167 5.60317
upperback -9.05863 2.80306 1.60425
thorax -6.80496 1.08134 -1.47939
lowerneck -10.8857 -3.26785 -2.09971
upperneck 20.2123 -6.49728 10.7091
head 8.51726 -2.20265 3.25779
rclavicle 4.96962e-017 3.4191e-014
rhumerus -53.8834 -36.7383 -54.8653
rradius 28.2176
rwrist 43.2708
rhand 5.18813 -32.7334
rfingers 7.12502
rthumb 30.5494 -60.2197
lclavicle 4.96962e-017 3.4191e-014
lhumerus -65.2609 17.4697 77.6923
lradius 87.0024
lwrist -12.7097
lhand -26.5305 -20.6663
lfingers 7.12502
lthumb 0.0333771 9.31345
rfemur -6.40265 24.8657 23.9375
rtibia 2.64002
rfoot -10.9803 -21.6577
rtoes -1.59366
lfemur 5.42994 -46.0257 -13.4749
ltibia -4.42548
lfoot -29.1359 56.0867
ltoes 17.595
222
root 0.742034 17.4372 9.43309 11.5389 -5.65151 -8.75418
lowerback -4.55794 2.13161 5.54726
upperback -9.03789 2.90846 1.46625
thorax -6.72102 1.13473 -1.59005
lowerneck -10.9785 -3.26569 -2.07926
upperneck 20.3258 -6.57351 10.9816
head 8.58922 -2.20325 3.34001
rclavicle 3.19049e-014 -1.66979e-014
rhumerus -54.0693 -36.8243 -54.8332
rradius 28.3111
rwrist 43.1479
rhand 5.24297 -32.5948
rfingers 7.12502
rthumb 30.6017 -60.0715
lclavicle 3.19049e-014 -1.66979e-014
lhumerus -65.6075 16.8928 78.6321
lradius 93.5882
lwrist -12.5669
lhand -28.8943 -23.7087
lfingers 7.12502
lthumb -2.24961 6.25922
rfemur -6.51549 24.7709 23.7974
rtibia 2.70497
rfoot -10.938 -21.3929
rtoes -1.85738
lfemur 5.39556 -45.8559 -13.5687
ltibia -4.39884
lfoot -29.0539 56.1014
ltoes 17.526
